<svg width="92" height="28" viewBox="0 0 92 28" fill="none" xmlns="http://www.w3.org/2000/svg">
<path d="M21.0938 7.125C21.301 7.125 21.4997 7.19743 21.6462 7.32636C21.7927 7.4553 21.875 7.63016 21.875 7.8125V18.125H3.125V7.8125C3.125 7.63016 3.20731 7.4553 3.35382 7.32636C3.50034 7.19743 3.69905 7.125 3.90625 7.125H21.0938ZM3.90625 5.75C3.28465 5.75 2.68851 5.9673 2.24897 6.35409C1.80943 6.74089 1.5625 7.26549 1.5625 7.8125V19.5H23.4375V7.8125C23.4375 7.26549 23.1906 6.74089 22.751 6.35409C22.3115 5.9673 21.7154 5.75 21.0938 5.75H3.90625ZM0 20.1875H25C25 20.7345 24.7531 21.2591 24.3135 21.6459C23.874 22.0327 23.2779 22.25 22.6562 22.25H2.34375C1.72215 22.25 1.12601 22.0327 0.686468 21.6459C0.24693 21.2591 0 20.7345 0 20.1875H0Z" fill="black"/>
<path d="M35.2422 20.1602H43.3281V22H32.9805V4.9375H35.2422V20.1602ZM53.3828 22C53.2578 21.75 53.1562 21.3047 53.0781 20.6641C52.0703 21.7109 50.8672 22.2344 49.4688 22.2344C48.2188 22.2344 47.1914 21.8828 46.3867 21.1797C45.5898 20.4688 45.1914 19.5703 45.1914 18.4844C45.1914 17.1641 45.6914 16.1406 46.6914 15.4141C47.6992 14.6797 49.1133 14.3125 50.9336 14.3125H53.043V13.3164C53.043 12.5586 52.8164 11.957 52.3633 11.5117C51.9102 11.0586 51.2422 10.832 50.3594 10.832C49.5859 10.832 48.9375 11.0273 48.4141 11.418C47.8906 11.8086 47.6289 12.2812 47.6289 12.8359H45.4492C45.4492 12.2031 45.6719 11.5938 46.1172 11.0078C46.5703 10.4141 47.1797 9.94531 47.9453 9.60156C48.7188 9.25781 49.5664 9.08594 50.4883 9.08594C51.9492 9.08594 53.0938 9.45312 53.9219 10.1875C54.75 10.9141 55.1797 11.918 55.2109 13.1992V19.0352C55.2109 20.1992 55.3594 21.125 55.6562 21.8125V22H53.3828ZM49.7852 20.3477C50.4648 20.3477 51.1094 20.1719 51.7188 19.8203C52.3281 19.4688 52.7695 19.0117 53.043 18.4492V15.8477H51.3438C48.6875 15.8477 47.3594 16.625 47.3594 18.1797C47.3594 18.8594 47.5859 19.3906 48.0391 19.7734C48.4922 20.1562 49.0742 20.3477 49.7852 20.3477ZM69.3203 15.8008C69.3203 17.7305 68.8789 19.2852 67.9961 20.4648C67.1133 21.6445 65.918 22.2344 64.4102 22.2344C62.8711 22.2344 61.6602 21.7461 60.7773 20.7695V26.875H58.6094V9.32031H60.5898L60.6953 10.7266C61.5781 9.63281 62.8047 9.08594 64.375 9.08594C65.8984 9.08594 67.1016 9.66016 67.9844 10.8086C68.875 11.957 69.3203 13.5547 69.3203 15.6016V15.8008ZM67.1523 15.5547C67.1523 14.125 66.8477 12.9961 66.2383 12.168C65.6289 11.3398 64.793 10.9258 63.7305 10.9258C62.418 10.9258 61.4336 11.5078 60.7773 12.6719V18.7305C61.4258 19.8867 62.418 20.4648 63.7539 20.4648C64.793 20.4648 65.6172 20.0547 66.2266 19.2344C66.8438 18.4062 67.1523 17.1797 67.1523 15.5547Z" fill="black"/>
<path d="M75.0273 6.25V9.32031H77.3945V10.9961H75.0273V18.8594C75.0273 19.3672 75.1328 19.75 75.3438 20.0078C75.5547 20.2578 75.9141 20.3828 76.4219 20.3828C76.6719 20.3828 77.0156 20.3359 77.4531 20.2422V22C76.8828 22.1562 76.3281 22.2344 75.7891 22.2344C74.8203 22.2344 74.0898 21.9414 73.5977 21.3555C73.1055 20.7695 72.8594 19.9375 72.8594 18.8594V10.9961H70.5508V9.32031H72.8594V6.25H75.0273ZM79.1289 15.543C79.1289 14.3008 79.3711 13.1836 79.8555 12.1914C80.3477 11.1992 81.0273 10.4336 81.8945 9.89453C82.7695 9.35547 83.7656 9.08594 84.8828 9.08594C86.6094 9.08594 88.0039 9.68359 89.0664 10.8789C90.1367 12.0742 90.6719 13.6641 90.6719 15.6484V15.8008C90.6719 17.0352 90.4336 18.1445 89.957 19.1289C89.4883 20.1055 88.8125 20.8672 87.9297 21.4141C87.0547 21.9609 86.0469 22.2344 84.9062 22.2344C83.1875 22.2344 81.793 21.6367 80.7227 20.4414C79.6602 19.2461 79.1289 17.6641 79.1289 15.6953V15.543ZM81.3086 15.8008C81.3086 17.207 81.6328 18.3359 82.2812 19.1875C82.9375 20.0391 83.8125 20.4648 84.9062 20.4648C86.0078 20.4648 86.8828 20.0352 87.5312 19.1758C88.1797 18.3086 88.5039 17.0977 88.5039 15.543C88.5039 14.1523 88.1719 13.0273 87.5078 12.168C86.8516 11.3008 85.9766 10.8672 84.8828 10.8672C83.8125 10.8672 82.9492 11.293 82.293 12.1445C81.6367 12.9961 81.3086 14.2148 81.3086 15.8008Z" fill="#E10808"/>
</svg>
